<?xml version="1.0" ?><svg id="Capa_1" style="enable-background:new 0 0 150 150;" version="1.1" viewBox="0 0 150 150" xml:space="preserve" xmlns="http://www.w3.org/2000/svg" xmlns:xlink="http://www.w3.org/1999/xlink"><style type="text/css">
	.st0{fill:#FFFFFF;}
	.st1{fill:#FFFFFF;}
	.st2{fill:#FFFFFF;}
	.st3{fill:#FFFFFF;}
	.st4{fill:#FFFFFF;}
	.st5{fill:#FFFFFF;}
	.st6{fill:#FFFFFF;}
	.st7{fill:#FFFFFF;}
	.st8{fill:#FFFFFF;}
	.st9{fill:#FFFFFF;}
	.st10{fill:#FFFFFF;}
	.st11{fill:#FFFFFF;}
	.st12{fill:#FFFFFF;}
	.st13{fill:#FFFFFF;}
	.st14{fill:#FFFFFF;}
	.st15{fill:#FFFFFF;}
	.st16{clip-path:url(#SVGID_2_);}
	.st17{fill:#FFFFFF;}
	.st18{opacity:0.2;fill:#FFFFFF;enable-background:new    ;}
	.st19{opacity:0.3;fill:#FFFFFF;enable-background:new    ;}
	.st20{clip-path:url(#SVGID_4_);}
	.st21{opacity:0.3;fill:url(#_45_shadow_1_);enable-background:new    ;}
	.st22{clip-path:url(#SVGID_6_);}
	.st23{fill:#FFFFFF;}
	.st24{opacity:0.3;fill:#FFFFFF;enable-background:new    ;}
	.st25{opacity:0.3;fill:#FFFFFF;enable-background:new    ;}
	.st26{opacity:0.3;fill:#FFFFFF;enable-background:new    ;}
	.st27{fill:url(#Finish_mask_1_);}
	.st28{fill:#FFFFFF;}
	.st29{fill:#FFFFFF;}
	.st30{opacity:0.2;fill:#FFFFFF;enable-background:new    ;}
	.st31{opacity:0.2;fill:#FFFFFF;enable-background:new    ;}
	.st32{fill:#FFFFFF;}
	.st33{opacity:0.2;fill:#FFFFFF;enable-background:new    ;}
	.st34{opacity:0.2;}
	.st35{fill:#FFFFFF;}
	.st36{fill:url(#SVGID_7_);}
	.st37{fill:#FFFFFF;}
	.st38{clip-path:url(#SVGID_9_);fill:#FFFFFF;}
	.st39{clip-path:url(#SVGID_11_);fill:#FFFFFF;}
	.st40{clip-path:url(#SVGID_13_);fill:#FFFFFF;}
	.st41{clip-path:url(#SVGID_15_);fill:#FFFFFF;}
</style><g><g id="g17480" transform="translate(646.3034,236.3789)"><path class="st6" d="M-571.3-147.3c7.9,0,14.2-6.4,14.2-14.2l0-33.2c0-7.9-6.4-14.2-14.2-14.2    c-7.9,0-14.2,6.4-14.2,14.2v33.2C-585.5-153.7-579.1-147.3-571.3-147.3" id="path17482"/></g><g id="g17484" transform="translate(645.4803,233.1492)"><path class="st5" d="M-575.2-125.5L-575.2-125.5v14.9h9.5v-14.8c-1.5,0.2-3.1,0.2-4.7,0.2    C-572.1-125.1-573.6-125.2-575.2-125.5" id="path17486"/></g><g id="g17488" transform="translate(643.3809,235.9115)"><path class="st9" d="M-585.2-144.1c-4.2-4.3-6.9-9.5-6.9-16.6h-9.5c0,9.5,3.7,17.3,9.7,23.3l0.1-0.1    c0,0,0,0-0.1-0.1L-585.2-144.1z" id="path17490"/></g><g id="g17492" transform="translate(650.4081,238.79)"><path class="st7" d="M-551.7-163.6c0,11.9-10.5,23.6-23.7,23.6c-6.6,0-12.5-2.7-16.8-7l-0.1,0.1l-6.6,6.6    c0,0,0,0,0.1,0.1c4.9,4.9,11.4,8.2,18.7,9.3c1.6,0.2,3.2,0.4,4.8,0.4c1.6,0,3.2,0,4.7-0.2c16.1-2.3,28.4-16.1,28.4-32.7H-551.7z" id="path17494"/></g></g></svg>